<svg id="vs20d_1" xmlns="http://www.w3.org/2000/svg" viewBox="0 0 266.68 255.04">
<name>Vitalik</name><desc>This ia a medal of honor awards for Vitalik Buterin.</desc><issuer class="tissuer">Anonymous</issuer>
<defs><style>.p20djv-1{fill:#738487;}.p20djv-2{fill:#443f31;}.p20djv-3{fill:#3f3a30;}.p20djv-4{fill:#fff;}.p20djv-10,.p20djv-5,.p20djv-8{fill:none;stroke-miterlimit:10;}.p20djv-5{stroke:#000;}.p20djv-10,.p20djv-5{stroke-width:0.75px;}.p20djv-6{fill:#eabdb9;}.p20djv-7{fill:#000102;}.p20djv-10,.p20djv-8{stroke:#020000;}.p20djv-9{fill:#dbbaba;}</style></defs><title>V 神2</title><path d="M180.78,107.72s4.76-7.62,16.67-6.67a22.59,22.59,0,0,1,12.38,3.33l1.43,1.43L205.55,103a34.25,34.25,0,0,0-14.77-1C186.38,102.57,182.25,106.43,180.78,107.72Z" transform="translate(-17 -13.73)"/><path class="p20djv-1" d="M202.21,106.48a4.53,4.53,0,1,1-9.05,0c-.29-2.92,2-3.24,4.52-3.24S202.62,102.3,202.21,106.48Z" transform="translate(-17 -13.73)"/><path class="p20djv-2" d="M193.61,104.19s-.45,4.48,1.46,5.43c0,0,7.12,3.88,6.93-5.84,0,0,1.82,5.22-2.17,7.27,0,0-5.71,1.91-6.67-3.33C193.16,107.72,192.85,104.84,193.61,104.19Z" transform="translate(-17 -13.73)"/><path class="p20djv-3" d="M200.78,105.34a2.86,2.86,0,0,1-5.71,0c0-1.58,1.28-1.91,2.86-1.91S200.78,103.76,200.78,105.34Z" transform="translate(-17 -13.73)"/><rect class="p20djv-4" x="179.97" y="90.66" width="1.43" height="0.95"/><path class="p20djv-1" d="M152.2,113.15a4.26,4.26,0,0,1-4.5,4.2,4.33,4.33,0,0,1-4.38-4.54c.16-3.3,1.49-3,4-3S152.31,108.85,152.2,113.15Z" transform="translate(-17 -13.73)"/><path class="p20djv-2" d="M144.1,110.1s-1.43,4.76,1,6.19a5.46,5.46,0,0,0,5.32-.24c1.92-1.13,1.15-5.19,1.15-6.19,0,0,2.88,5.32-1.71,7.38,0,0-5.86,1.66-6.67-2.85C143.15,114.39,143.15,110.57,144.1,110.1Z" transform="translate(-17 -13.73)"/><path class="p20djv-3" d="M150.77,111.53a2.86,2.86,0,1,1-5.71,0c0-1.58,1.28-1.91,2.85-1.91S150.77,110,150.77,111.53Z" transform="translate(-17 -13.73)"/><rect class="p20djv-4" x="130.43" y="97.33" width="1.43" height="0.95"/><path d="M133.63,114.39s7.14-7.63,16.19-7.63a9.24,9.24,0,0,1,7.14,2.86s1.91,1.91,3.34,1.91c0,0-.48,1.43-6.19-2.38,0,0-4.77-3.81-13.34.95C140.77,110.1,134.1,114.39,133.63,114.39Z" transform="translate(-17 -13.73)"/><path class="p20djv-5" d="M17.26,266.39s30.14-27.85,62.91-37.68c0,0,32.76-10.82,35.71-14.09" transform="translate(-17 -13.73)"/><path class="p20djv-5" d="M283.31,267s0-2-13.11-7.53a277.54,277.54,0,0,1-42.92-22.94c-14.42-9.5-16.71-14.42-16.71-14.42" transform="translate(-17 -13.73)"/><path class="p20djv-6" d="M157.38,159.68s5-5,11.58-5l5.9.87s3.18-1.82,4.37-1.85c7-.22,13.43.54,14.25,1.64l0,0c.79,1.49-3.93,3.58-8.2,4.81-5.1,1.45-9,2.91-14.28,2.91C155.78,164.17,157.38,159.68,157.38,159.68Z" transform="translate(-17 -13.73)"/><path class="p20djv-6" d="M170.16,143c-4.57-1.61-10-.09-10-.09s-2,.72-.14,2.17c3.14,2.63,7.91,3,12,4.48,2,.57,1.22-1.14,3.82-2.3s6.26-1.83,6.55-3.27,4.29-2.5,2.3-3.39a7.08,7.08,0,0,0-5.14-.55C177,140.61,172,143.63,170.16,143Z" transform="translate(-17 -13.73)"/><path class="p20djv-7" d="M168.87,145.34s.48-1-2.86-2.85c0,0-7.16-1.62-6.19,1.43.39,1.22,3,2,4.88,2.17,4.2.32,4.1-.71,4.1-.71a11.55,11.55,0,0,1-4.43.1c-1.16-.16-3.12-.61-3.6-1.56-.21-.43,0-1,1-1a13.33,13.33,0,0,1,3.81.48A6.54,6.54,0,0,1,168.87,145.34Z" transform="translate(-17 -13.73)"/><path class="p20djv-7" d="M173.77,144s-.77-3.55,5.84-4c0,0,5.13-.43,4.48,1.7,0,0-.1,1.95-5.22,2.67-3.47.49-5.36-.34-4.89-.27a12.82,12.82,0,0,0,3.66-.22s2.13-.33,2.84-.55a7.71,7.71,0,0,0,2.3-1.2c.47-.47.56-.92-1.32-1.25-.92-.17-4.42-.28-5.78.76C174.53,142.54,174.31,142.37,173.77,144Z" transform="translate(-17 -13.73)"/><path class="p20djv-7" d="M152.68,161.54s3.58.88,11.43.48c4.3-.48,9.52-.48,9.52-.48l8.07-1.42.06,0c.65-.15,14.38-3.39,19-6.18l-.47,1s-4.66,2.12-7.51,3.07c-1.36.45-15,3.44-19.17,4.08a26.7,26.7,0,0,1-6.06.34c-.95,0-5.81.4-8.19.4C155.09,162.76,153.15,162.49,152.68,161.54Z" transform="translate(-17 -13.73)"/><path class="p20djv-6" d="M172.2,168.89c.48-.32,8,.44,10.05,0s-.58,2-1,2.62-1.75,2.77-1.75,2.77-4.37,1.31-5.68.44S171.76,169.18,172.2,168.89Z" transform="translate(-17 -13.73)"/><path class="p20djv-8" d="M173.53,170.21a50.43,50.43,0,0,0,5.34-.3c.66,0,1.11.74-2.38,2.05s-1.21,2.45.54,2.23" transform="translate(-17 -13.73)"/><path class="p20djv-5" d="M239.33,104.53s2.62-3.93,8.45-1.46c0,0,9,2.19.73,29.27,0,0-5.32,23.72-15.06,16.48" transform="translate(-17 -13.73)"/><path class="p20djv-5" d="M237,120.84s-1.6-10.63,9.76-16.46" transform="translate(-17 -13.73)"/><path class="p20djv-5" d="M122.11,124.77s-4.66-13.25-14.57-6.41c0,0-4.43,4.9,1.31,18.64,0,0,10.78,26.51,19.37,23.59" transform="translate(-17 -13.73)"/><path class="p20djv-5" d="M108.14,121.12s5.64-7.9,12.92,10.29" transform="translate(-17 -13.73)"/><path class="p20djv-9" d="M138.93,182.51s9.72,10.76,27.3,17c3.93,1.4,5.23.56,11.58.43,12.87-.25,33.82-15.28,38.44-17.91,0,0-3.26,7.85-9,12.45s-22.71,17.71-34.07,18.57c-2.15.07-13.11-4.37-14.85-7.65s-5.89-3.41-11.79-9C142.52,192.56,138.07,190.36,138.93,182.51Z" transform="translate(-17 -13.73)"/><path d="M212.69,107.72a30.12,30.12,0,0,0-5.24.47,24.58,24.58,0,0,0-3.57,2.15c1-.48,2.85-2.64,2.38-3.34a9,9,0,0,0-7.38-3.57s-7.15-1-13.34,7.62a27.64,27.64,0,0,0,4.77.48c2.38,0-2.79.91-4.77,1a21.29,21.29,0,0,1-2.14-.24s2.86-4.29,5.24-5.71c0,0,3.83-2.56,5.71-2.86,2.24-.36,3.26-1.57,9.05,0a36.36,36.36,0,0,1,4.53,3.09,10.8,10.8,0,0,0,1.9.48" transform="translate(-17 -13.73)"/><path d="M160.3,115.81a13.57,13.57,0,0,0-4.76-4.76,16.93,16.93,0,0,0-11.91-1s-3.81.47-7.15,6.67h2.38a7,7,0,0,0,2.86.47l-3.33-1.43s1.41-5.71,8.57-5.71c6.19,0,8.58,1,10.48,4.29a8,8,0,0,1-3.81,2.38C156.35,117,157.92,115.34,160.3,115.81Z" transform="translate(-17 -13.73)"/><path class="p20djv-5" d="M125.57,60.15S114.8,72.59,114.91,79.7c.07,4.59,5.47,15.45,5.62,25.69,0,0,2.14,12.39,2,20.79,0,0-1.21,9.6,4.63,22.85,1.7,3.86,3.85,29.48,12,34.17,0,0,7.49,8.17,22.78,14.07,26.14,10.09,50.86-14.9,57.63-18.35,8-4.08,12.88-13.25,12.1-30.31,0-.37,5-19.8.58-33l-3.7-10.88c-.86-7.28,2.18-10.07-1.95-16.94-5.88-9.65,12.52-17-12.25-39.07-2.15-1.91-9.39-1.18-2.23,10.17,0,0-3.25.31-13.34-15.59,0,0-4.59,5.35-1.69,9.94,0,0-2.44,2-8.25-5.81s-4.59,4.43-23.39,9.93c0,0-4.28,1.53-6.42,8.57s5.81-8.72-5.66-11.32c0,0-10.39,9-11.31,8.87s6.12-11.62,4.59-11.77-5.56.76-12.2,4.14a2.84,2.84,0,0,1-2.68-.14C129.32,54.41,125.57,60.15,125.57,60.15Z" transform="translate(-17 -13.73)"/><path class="p20djv-5" d="M136.71,180.77s6.77,19.74-19.11,32.85c-12,6.09,14.32,38.45,23.92,44.56,7.64,4.86,27.85,6.88,33.09,8.85s16.86,2.13,24.72-1.66c8.93-4.31,21.33-20.64,15.58-33.08-1.79-3.86-4.26-4.58-4.59-9.5s2.31-25.06,9.89-43.82" transform="translate(-17 -13.73)"/><path class="p20djv-5" d="M119.76,118.62s-13.07-7.8-12.84-25.68-8-22.25,11.93-48.39c1.57-2,5.67-10.52,10.49-12C137.17,30,149.59,16,157.58,16.34c3.79.48,6-2.07,11.26-2.24,3.66,0,24.47,2.88,50.67,16.7a26.62,26.62,0,0,1,17.32,21.79c.12.87,11.76,15.29,6.76,29.34,0,0,2.06,13.53-3,20.41,0,0-9.41,7.56-9,10.77" transform="translate(-17 -13.73)"/><path class="p20djv-10" d="M128.21,107.88s-2.06-7.76,16-8.52c0,0,7-1.66,10.09,2.25,1.38,3.33-4.85.88-9.52,1.45C137,103.06,130.58,110,128.21,107.88Z" transform="translate(-17 -13.73)"/><path class="p20djv-10" d="M184.2,95.88s-1.23-2.45,9.47-3.36c4.86-1.42,17-5.91,22.91,4.12a.37.37,0,0,1,0,.25c-.53,2-9.14-2.25-14.31-1.35C197.21,95.38,184,99.47,184.2,95.88Z" transform="translate(-17 -13.73)"/></svg>
