<svg xmlns="http://www.w3.org/2000/svg" xmlns:xlink="http://www.w3.org/1999/xlink" version="1.2" viewBox="0 0 267.8 267.8" height="300px" width="300px" aria-labelledby="cnt20aa desccnt"><name id="cntn20aat">Commemorative NaturalDAO Token(鼠年吉祥)</name><desc id="cntd20aat">As a proof of work, four kinds of commemorative token, which are totally stored in Ethereum,  are released to celebrate NaturalDAO's pioneering work.</desc><issuer class="cnti20a30k">NaturalDAO</issuer><ARTIST>Tung Sau Chun Queena and Derek Zhou</ARTIST><defs><style>.p20a01u-1{fill:url(#pic20aa);}.p20a01u-2{fill:url(#pica30k2);}.p20a01u-3{fill:url(#pica30k3);}.p20a01u-4{fill:#6b6a6a;}.p20a01u-5{fill:#b7670f;}.ts20aap{text-anchor: middle;font-size: 40px;font-weight: bold;text-transform: uppercase;fill: none;stroke-width: 1px;stroke-dasharray: 90 310;animation: stroke 6s infinite linear;}.ta01m1{stroke: #FFFFFF;text-shadow: 0 0 5px #FFFFFF;animation-delay: -1.5s;}.ta01m2{stroke: #f39c12;text-shadow: 0 0 5px #f39c12;animation-delay: -3s;}.ta01m3{stroke: #e74c3c;text-shadow: 0 0 5px #e74c3c;animation-delay: -4.5s;}.ta01m4{stroke: #9b59b6;text-shadow: 0 0 5px #9b59b6;animation-delay: -6s;}@keyframes stroke{100% {stroke-dashoffset: -400;}}</style><linearGradient id="pic20aa" x1="14.59" y1="192.74" x2="257.65" y2="80.19" gradientTransform="matrix(1, 0, 0, -1, 0.96, 272.72)" gradientUnits="userSpaceOnUse"><stop offset="0" stop-color="#c2a053"/><stop offset="0.01" stop-color="#b6944d"/><stop offset="0.02" stop-color="#93733b"/><stop offset="0.04" stop-color="#76582c"/><stop offset="0.06" stop-color="#604321"/><stop offset="0.08" stop-color="#503419"/><stop offset="0.1" stop-color="#472b14"/><stop offset="0.14" stop-color="#442813"/><stop offset="0.15" stop-color="#52351a"/><stop offset="0.17" stop-color="#76582d"/><stop offset="0.2" stop-color="#b18f4b"/><stop offset="0.23" stop-color="#f0cc6b"/><stop offset="0.27" stop-color="#c8a556"/><stop offset="0.33" stop-color="#8e6f39"/><stop offset="0.39" stop-color="#644723"/><stop offset="0.43" stop-color="#4b2e16"/><stop offset="0.46" stop-color="#412511"/><stop offset="0.61" stop-color="#c09e52"/><stop offset="0.67" stop-color="#f0cc6b"/><stop offset="0.7" stop-color="#ebc769"/><stop offset="0.73" stop-color="#ddba61"/><stop offset="0.76" stop-color="#c6a455"/><stop offset="0.8" stop-color="#a68645"/><stop offset="0.83" stop-color="#7d5f30"/><stop offset="0.86" stop-color="#583c1d"/><stop offset="1" stop-color="#f0cc6b"/></linearGradient><linearGradient id="pica30k2" x1="37.39" y1="213.05" x2="240.15" y2="54.74" gradientTransform="matrix(1, 0, 0, -1, -0.66, 271.08)" gradientUnits="userSpaceOnUse"><stop offset="0.01" stop-color="#cfd0d0"/><stop offset="0.03" stop-color="#c9caca"/><stop offset="0.1" stop-color="#b5b5b6"/><stop offset="0.15" stop-color="#aeaeaf"/><stop offset="0.31" stop-color="#fff"/><stop offset="0.36" stop-color="#e2e3e3"/><stop offset="0.44" stop-color="#bababa"/><stop offset="0.51" stop-color="#9c9d9d"/><stop offset="0.57" stop-color="#8a8b8b"/><stop offset="0.62" stop-color="#848585"/><stop offset="0.67" stop-color="#9c9d9d"/><stop offset="0.77" stop-color="#dadada"/><stop offset="0.83" stop-color="#fff"/><stop offset="0.85" stop-color="#f4f4f4"/><stop offset="0.89" stop-color="#d5d5d6"/><stop offset="0.94" stop-color="#a4a5a5"/><stop offset="0.99" stop-color="#78797a"/></linearGradient><linearGradient id="pica30k3" x1="-12.36" y1="219.22" x2="292.85" y2="48.79" gradientTransform="matrix(1, 0, 0, -1, -0.66, 271.08)" gradientUnits="userSpaceOnUse"><stop offset="0.02" stop-color="#311609"/><stop offset="0.06" stop-color="#53361a"/><stop offset="0.22" stop-color="#c3a154"/><stop offset="0.28" stop-color="#f0cc6b"/><stop offset="0.62" stop-color="#f0cc6b"/><stop offset="0.66" stop-color="#ebc769"/><stop offset="0.69" stop-color="#ddba61"/><stop offset="0.73" stop-color="#c6a456"/><stop offset="0.78" stop-color="#a68545"/><stop offset="0.82" stop-color="#7c5e30"/><stop offset="0.86" stop-color="#4a2e16"/><stop offset="0.87" stop-color="#402511"/></linearGradient><path id="tc20aax" d="M13,196 c-5,-229 250,-220 240,-4"></path><path id="tc20aax2" d="M54,210 c22,50 140,52 160,-1"></path></defs><path class="p20a01u-1" d="M269.43,135.53A133.9,133.9,0,1,1,135.52,1.64h0A133.91,133.91,0,0,1,269.43,135.53Z" transform="translate(-1.63 -1.64)"/><circle class="p20a01u-2" cx="133.88" cy="133.92" r="128.58"/><circle class="p20a01u-3" cx="133.92" cy="133.91" r="95.42"/><polygon class="p20a01u-4" points="243.72 130.09 245.74 134.32 250.37 135.05 246.97 138.28 247.7 142.91 243.58 140.68 239.41 142.81 240.26 138.2 236.94 134.89 241.59 134.27 243.72 130.09"/><polygon class="p20a01u-4" points="23.6 130.09 25.62 134.32 30.26 135.05 26.86 138.28 27.59 142.91 23.47 140.68 19.3 142.81 20.14 138.2 16.83 134.89 21.48 134.27 23.6 130.09"/><path class="p20a01u-5" d="M135.75,135.07,158.64,99.6,169.8,62.86s-20.64-4.37-34.23-15.39C122,58.47,101.7,62.86,101.7,62.86L112.86,99.6Z" transform="translate(-1.63 -1.64)"/><path class="p20a01u-5" d="M135.75,135.07l2.46,42.13,12.68,36.25s19.24-8.66,36.71-7.78c4.44-16.9,18.26-32.41,18.26-32.41l-30.7-23.08Z" transform="translate(-1.63 -1.64)"/><path class="p20a01u-5" d="M135.75,135.07,96.39,150.3,65.76,173.47S79.89,189.14,84.41,206c17.44-.95,36.44,7.46,36.44,7.46l12.58-36.29Z" transform="translate(-1.63 -1.64)"/><path class="p20a01u-5" d="M135.75,135.07l-26.56-32.81L77.75,80.2S67.17,98.45,52.46,107.93c6.25,16.31,4.06,37,4.06,37l38.44.79Z" transform="translate(-1.63 -1.64)"/><path class="p20a01u-5" d="M135.75,135.07l40.75,11,38.4-.56s-2.12-21,4.24-37.29c-14.63-9.56-25-27.58-25-27.58l-31.58,21.83Z" transform="translate(-1.63 -1.64)"/>
<text text-anchor="middle" x="48%" y="52%" class="ts20aap ta01m1">鼠年吉祥</text><text text-anchor="middle" x="48%" y="52%" class="ts20aap ta01m2">鼠年吉祥</text><text text-anchor="middle" x="48%" y="52%" class="ts20aap ta01m3">鼠年吉祥</text><text text-anchor="middle" x="48%" y="52%" class="ts20aap ta01m4" onclick="javascript:alert('Thank You and Cheers!!')">鼠年吉祥</text><text text-anchor="middle" style="fill:#6a3906" ><textPath xlink:href="#tc20aax" startOffset="50%">Commemorative NaturalDAO Token</textPath></text><text text-anchor="middle" style="fill:#6a3906"><textPath xlink:href="#tc20aax2" startOffset="50%">Since June 20th, 2019</textPath></text></svg>
